<?xml version="1.0" encoding="UTF-8"?>
<svg version="1.1" xmlns="http://www.w3.org/2000/svg" width="100" height="100">
<path d="M0 0 C0.495 2.475 0.495 2.475 1 5 C2.32 5 3.64 5 5 5 C5 6.32 5 7.64 5 9 C6.65 9.33 8.3 9.66 10 10 C9.45015228 13.87511727 7.72444669 15.59576506 4.9375 18.25 C3.83728516 19.30960938 3.83728516 19.30960938 2.71484375 20.390625 C2.14894531 20.92171875 1.58304687 21.4528125 1 22 C1.50660156 23.06927734 1.50660156 23.06927734 2.0234375 24.16015625 C2.46945313 25.11792969 2.91546875 26.07570313 3.375 27.0625 C3.81585938 28.00222656 4.25671875 28.94195313 4.7109375 29.91015625 C9.56794894 41.5522655 9.98684694 55.44582108 5.32421875 67.2578125 C-1.14066206 80.64526479 -9.28325471 88.28321454 -23 94 C-34.80304207 98.05902738 -48.76570486 97.42510834 -60 92 C-73.1077132 85.09660438 -80.3385849 75.64684528 -85.14453125 61.671875 C-88.38205069 47.77567285 -85.96553459 34.37300235 -78.75 22.1875 C-71.40158571 11.37461132 -60.71193453 4.96161028 -48 2 C-45.09812929 1.68978929 -42.22963851 1.61906578 -39.3125 1.625 C-38.52520508 1.62588623 -37.73791016 1.62677246 -36.92675781 1.62768555 C-27.8388969 1.81044469 -19.90174071 4.61014405 -12 9 C-11.38511719 8.3503125 -10.77023438 7.700625 -10.13671875 7.03125 C-9.32847656 6.1959375 -8.52023438 5.360625 -7.6875 4.5 C-6.48673828 3.24703125 -6.48673828 3.24703125 -5.26171875 1.96875 C-3 0 -3 0 0 0 Z " fill="#070605" transform="translate(89,1)"/>
<path d="M0 0 C-0.66 2.64 -1.32 5.28 -2 8 C-4.4386339 7.04854705 -6.83227364 6.08221292 -9.18359375 4.9296875 C-17.31832132 1.12314254 -25.49883727 0.60797829 -34.2109375 2.8125 C-43.67616125 6.31633604 -51.3939069 12.26876822 -56.0625 21.3125 C-59.69481634 29.33978985 -60.45607118 38.3416923 -58.24609375 46.9296875 C-54.08033571 57.67897687 -47.28681691 65.31824816 -36.859375 70.2734375 C-28.82162852 73.4142376 -19.03473965 73.12146484 -11.05078125 69.96875 C-0.94501695 65.19497943 5.44239227 58.80954835 9.2734375 48.19921875 C9.51320313 47.47347656 9.75296875 46.74773438 10 46 C10.33 45.01 10.66 44.02 11 43 C11.96280149 33.44075665 10.14061893 26.55275385 6 18 C5.505 16.515 5.505 16.515 5 15 C7.64 14.34 10.28 13.68 13 13 C18.98289253 24.34922743 22.50058513 35.28449571 18.6875 48.07421875 C14.39938691 60.08580826 7.45076771 70.37281912 -4.1875 76.3125 C-5.45192709 76.88925622 -6.7221842 77.45354745 -8 78 C-9.299375 78.5878125 -9.299375 78.5878125 -10.625 79.1875 C-20.55057442 82.58309125 -31.27608127 81.54740632 -41 78 C-54.51772711 71.17796949 -61.67465754 61.86425364 -67 48 C-69.7580437 36.69202085 -68.12704082 25.7290439 -62.6796875 15.52734375 C-55.5930929 4.23913433 -46.80698867 -1.41196758 -34.625 -6.375 C-22.29468688 -8.50091606 -10.57816476 -7.05210984 0 0 Z " fill="#5F94ED" transform="translate(74,13)"/>
<path d="M0 0 C-0.54226981 3.79588866 -2.20127563 5.47211993 -5 8 C-10 6 -10 6 -12.28515625 4.95703125 C-18.09915434 2.90749236 -24.74118665 3.04890929 -30.63671875 4.76953125 C-36.89660772 7.77725379 -40.65481437 12.51106532 -43 19 C-44.28994122 26.62747849 -43.40826974 33.17087353 -39.56640625 39.90234375 C-36.50038956 44.00820651 -32.88076337 46.37307888 -28 48 C-19.42420168 48.84194373 -11.98661533 48.43837097 -5 43 C0.43018926 36.55400166 1.31778092 30.49754968 1.30859375 22.23828125 C1.01029909 19.10807521 0.55342232 17.5314254 -1.125 14.9375 C-3 12 -3 12 -2.5625 9.8125 C-0.59741215 7.53299809 1.58136892 5.78214922 4 4 C10.14385614 13.77607297 13.8181591 21.63418883 11.53515625 33.39453125 C9.06493698 41.74065673 4.19860774 49.059779 -3 54 C-12.0976412 58.61134734 -20.50798991 60.58856374 -30.7265625 58.421875 C-39.58838835 55.32726915 -46.78137231 49.01601565 -51.0625 40.6875 C-54.88355312 32.24310859 -55.64138746 22.5790978 -52.5 13.75 C-47.97927681 4.04698437 -40.68874949 -1.78750022 -31 -6 C-20.01157697 -9.47788923 -9.39468959 -5.87589008 0 0 Z " fill="#F0C824" transform="translate(71,24)"/>
<path d="M0 0 C1.87907267 0.9496028 3.697652 2.01725864 5.5 3.10546875 C3.52 5.41546875 1.54 7.72546875 -0.5 10.10546875 C-1.82 9.77546875 -3.14 9.44546875 -4.5 9.10546875 C-7.95786015 8.60539081 -7.95786015 8.60539081 -11.5 9.10546875 C-14.3971941 11.41820317 -14.3971941 11.41820317 -16.5 14.10546875 C-16.83 14.43546875 -17.16 14.76546875 -17.5 15.10546875 C-17.88387346 20.09582379 -17.58713243 23.10363042 -14.5 27.10546875 C-10.77420911 29.58932934 -8.91288598 29.48588995 -4.5 29.10546875 C-1.64253783 27.83548556 -0.01862737 26.82166845 1.8125 24.29296875 C3.16343369 19.99454336 2.57817497 16.41816863 1.5 12.10546875 C3.81 10.12546875 6.12 8.14546875 8.5 6.10546875 C12.70074997 12.01277339 13.51362571 16.91700069 12.5 24.10546875 C10.70962726 30.04990857 7.53414224 33.61239046 2.5 37.10546875 C-2.81549853 39.59600863 -7.71553929 39.89941434 -13.5 39.10546875 C-19.46479338 36.70766144 -23.86531157 32.64234007 -26.57421875 26.78125 C-28.36094861 21.61707299 -28.60708455 15.92307021 -26.58984375 10.7890625 C-20.80844926 0.99229435 -11.26618692 -4.03118251 0 0 Z " fill="#ED8F00" transform="translate(57.5,30.89453125)"/>
<path d="M0 0 C0.66 0.33 1.32 0.66 2 1 C0.84956617 4.10617134 -0.2946413 5.23822062 -2.9375 7.375 C-6.81191972 10.52000573 -8.68678693 13.47882814 -9.31640625 18.546875 C-9.58774568 24.88396368 -8.78450492 29.81926996 -5 35 C0.43844384 40.16652164 4.81156497 41.4636505 12.18359375 41.31640625 C19.08478697 40.54109883 23.98278577 36.5154928 29 32 C29.33 32.99 29.66 33.98 30 35 C26.97384257 40.47590391 21.76131015 43.10788071 16 45 C8.7199653 46.10170017 2.22823088 45.73992187 -4.05859375 41.69921875 C-8.94768209 37.42003681 -12.58724346 31.72525839 -13.30859375 25.21484375 C-13.63445286 16.93012271 -12.46383432 11.37644873 -7 5 C-4.7417637 3.00770371 -2.59778285 1.55866971 0 0 Z " fill="#130E01" transform="translate(40,28)"/>
<path d="M0 0 C0.33 0 0.66 0 1 0 C1 2.64 1 5.28 1 8 C1.66 8 2.32 8 3 8 C3.14695312 8.76183594 3.29390625 9.52367187 3.4453125 10.30859375 C5.69803429 20.67888198 9.93160467 29.0567688 19 35 C29.1747023 40.77045837 40.02240367 39.97697528 51 37 C49.3515625 40.84375 49.3515625 40.84375 46.1875 42.25 C34.94509828 44.82638373 25.62491874 42.76711066 15.8125 37.1875 C8.10411113 31.19208643 1.71949718 23.97308365 0 14 C-0.06831987 11.5842094 -0.08487642 9.16665287 -0.0625 6.75 C-0.05347656 5.48671875 -0.04445313 4.2234375 -0.03515625 2.921875 C-0.02355469 1.95765625 -0.01195312 0.9934375 0 0 Z " fill="#0F1214" transform="translate(14,43)"/>
<path d="M0 0 C1.5778125 0.4021875 1.5778125 0.4021875 3.1875 0.8125 C2.548125 1.575625 1.90875 2.33875 1.25 3.125 C-0.95482781 5.69496713 -0.95482781 5.69496713 -1.8125 8.8125 C0.89974618 7.19981308 3.56102812 5.56348126 6.1875 3.8125 C6.5175 4.1425 6.8475 4.4725 7.1875 4.8125 C6.73679577 10.89700704 6.73679577 10.89700704 5.0625 13.6875 C2.08355036 15.47486979 -0.36524901 15.75202191 -3.8125 15.8125 C-7.11511862 13.72663561 -7.72216686 12.10475427 -8.875 8.375 C-8.8125 4.8125 -8.8125 4.8125 -6.8125 1.8125 C-3.8125 -0.1875 -3.8125 -0.1875 0 0 Z " fill="#E4412A" transform="translate(50.8125,42.1875)"/>
<path d="M0 0 C0.7425 0.0825 1.485 0.165 2.25 0.25 C0.26929545 2.60043607 -1.73619077 4.92790392 -3.75 7.25 C-4.430625 8.054375 -5.11125 8.85875 -5.8125 9.6875 C-7.75 11.25 -7.75 11.25 -10.5 11.5 C-11.2425 11.4175 -11.985 11.335 -12.75 11.25 C-10.76929545 8.89956393 -8.76380923 6.57209608 -6.75 4.25 C-6.069375 3.445625 -5.38875 2.64125 -4.6875 1.8125 C-2.75 0.25 -2.75 0.25 0 0 Z " fill="#E04029" transform="translate(90.75,13.75)"/>
<path d="M0 0 C0.30859375 2.16796875 0.30859375 2.16796875 0 5 C-2.15234375 7.67578125 -2.15234375 7.67578125 -4.9375 10.3125 C-5.85402344 11.19550781 -6.77054687 12.07851563 -7.71484375 12.98828125 C-10 15 -10 15 -11 15 C-11.30859375 12.83203125 -11.30859375 12.83203125 -11 10 C-8.84765625 7.32421875 -8.84765625 7.32421875 -6.0625 4.6875 C-5.14597656 3.80449219 -4.22945313 2.92148438 -3.28515625 2.01171875 C-1 0 -1 0 0 0 Z " fill="#AF1925" transform="translate(86,7)"/>
<path d="M0 0 C0 0.33 0 0.66 0 1 C-0.928125 1.061875 -1.85625 1.12375 -2.8125 1.1875 C-6.18040486 1.66976425 -6.18040486 1.66976425 -7.6875 4.5 C-8.3371875 5.7375 -8.3371875 5.7375 -9 7 C-9.99 7.33 -10.98 7.66 -12 8 C-12.33 9.98 -12.66 11.96 -13 14 C-13.33 14 -13.66 14 -14 14 C-14.31974464 9.92325579 -14.43803342 7.67970704 -12.1875 4.1875 C-8.08691134 0.08691134 -5.67283941 -0.21406941 0 0 Z " fill="#281501" transform="translate(53,39)"/>
<path d="M0 0 C2 1 2 1 3 3 C-1.95 5.475 -1.95 5.475 -7 8 C-5.06904938 4.13809876 -3.82753337 1.91376669 0 0 Z " fill="#151307" transform="translate(35,17)"/>
<path d="M0 0 C-1.8125 2 -1.8125 2 -4 4 C-4.99 4 -5.98 4 -7 4 C-6.6875 2.0625 -6.6875 2.0625 -6 0 C-3 -1 -3 -1 0 0 Z " fill="#181913" transform="translate(65,81)"/>
<path d="M0 0 C-0.33 0.66 -0.66 1.32 -1 2 C-3.64 2 -6.28 2 -9 2 C-8.67 1.34 -8.34 0.68 -8 0 C-4.71585695 -0.95067299 -3.30306592 -1.10102197 0 0 Z " fill="#060501" transform="translate(59,83)"/>
</svg>
